/* XPM */
static char *dummy[]={
"64 64 281 2",
".# c #000000",
"b8 c #000101",
"bl c #000404",
"#y c #000505",
"#Y c #010000",
"ca c #010101",
"#5 c #010202",
"#0 c #020a0a",
"bv c #030000",
"a8 c #030b0b",
"#p c #031111",
"b9 c #041212",
".v c #050000",
".a c #050808",
".A c #060000",
"bX c #080000",
".o c #080303",
"aF c #090000",
"bx c #091010",
".6 c #0a0000",
"aw c #0b0000",
"bz c #0b1313",
"aq c #0c1313",
"cs c #0d0606",
"at c #0d1111",
".V c #0e0000",
"bG c #100000",
"bT c #110000",
"af c #111d1d",
".L c #121919",
"bk c #121d1d",
"aZ c #130000",
"b7 c #130101",
"aR c #131818",
".t c #160000",
"#u c #161919",
"#R c #170000",
"a2 c #180000",
"bI c #191f1f",
"#P c #1a0000",
".T c #1a1a1a",
"cr c #1c2222",
"co c #1e2424",
".M c #1e2929",
"a4 c #1f2c2c",
"#t c #200000",
"#1 c #202c2c",
"ag c #210000",
"ax c #211616",
"cf c #220000",
"ck c #222f2f",
"ci c #230000",
"cb c #230404",
"#2 c #230707",
"bE c #251717",
"aQ c #260000",
".D c #261515",
"#L c #262b2b",
"cn c #271e1e",
"a5 c #2a0808",
".5 c #2a2e2e",
"bJ c #2b0505",
"bQ c #2c0000",
".Z c #2d0000",
"#E c #2d3131",
".U c #2e3232",
"#V c #2f2424",
".c c #2f3131",
".1 c #300808",
"aE c #303b3b",
"#J c #310000",
"bB c #312c2c",
"aX c #313232",
"bS c #313535",
"#F c #323737",
"cu c #332c2c",
"b6 c #333737",
"aS c #343838",
"aj c #350000",
"bW c #353a3a",
"#. c #374141",
"c. c #380101",
"ah c #390000",
"ao c #3a0000",
"bp c #3c0000",
".u c #3c3636",
"#q c #3d0303",
"bN c #3e4141",
"ay c #3e4242",
"#4 c #400000",
"#K c #412727",
"bf c #430000",
".N c #431010",
".p c #460000",
".C c #474a4a",
"bC c #481414",
"cd c #482f2e",
"a. c #490000",
"cl c #491616",
"bL c #493232",
".n c #494c4c",
"a9 c #4a1414",
".i c #4b4242",
".j c #4c4f4f",
"aD c #4d3131",
"#d c #4e0707",
"aa c #4e1313",
".d c #505858",
"bh c #515656",
".9 c #520000",
"bt c #524747",
"#X c #524f4f",
"#n c #530000",
"#W c #535a5a",
"bV c #540000",
"b3 c #540809",
"bA c #540909",
"bm c #545656",
"ct c #565151",
".b c #565858",
"bM c #565d5d",
"b0 c #570000",
"aH c #570101",
"a3 c #574848",
"cc c #580000",
"#Q c #594747",
"cv c #595b5b",
"ar c #5a0a0a",
".e c #5a3030",
".2 c #5c0000",
"#G c #5c1b1b",
".4 c #5d0000",
"bY c #5d0101",
"c# c #5d0202",
"ap c #5d3b3b",
"bc c #5d5c5c",
"b. c #5e0000",
"aM c #5e0101",
"ab c #5f0000",
".S c #5f0d0d",
"aT c #5f1c1c",
"bq c #5f3b3b",
"#6 c #5f5e5e",
"#g c #600101",
"aJ c #611b1b",
"au c #626868",
"#j c #631f1f",
"bb c #633d3d",
"#S c #640000",
"ad c #643f3f",
"cw c #646666",
"by c #646a6a",
"#7 c #650f0f",
"a0 c #670000",
".k c #681e1e",
"bn c #681f1f",
"bd c #690e0e",
"#o c #694040",
"#h c #695757",
"aK c #6a0101",
"cp c #6a0e0e",
"b1 c #6a4141",
"aN c #6a5454",
"ae c #6a7070",
"#k c #6b0101",
"#M c #6b1110",
"#Z c #6c0505",
"bR c #6c5455",
"cj c #6d5959",
"bj c #6e0000",
"a7 c #6e0505",
".m c #6f1212",
".B c #6f6868",
"ai c #700000",
"ba c #700101",
".0 c #705959",
"av c #706767",
"#i c #707070",
"bs c #710505",
"az c #711010",
"aI c #717272",
"Qt c #ffffffff",
"aO c #737373",
".w c #750000",
"bF c #756a6a",
"b4 c #760000",
"b2 c #766f6f",
"ak c #770000",
".h c #770606",
"a# c #775d5d",
"bg c #775f5f",
"bu c #777b7b",
"bw c #780000",
"#z c #787d7d",
"#v c #797777",
"am c #7a0101",
".K c #7a0808",
"#c c #7a7171",
"aY c #7a7e7e",
".g c #7b0101",
"#8 c #7c0000",
".f c #7d0101",
"bH c #7d0808",
"aW c #7d0809",
"cq c #7d0909",
"be c #7e0001",
".l c #7e0101",
"#D c #7e0808",
"cg c #7f0000",
"#B c #800000",
"aC c #810101",
"#A c #847676",
"ce c #867878",
"#w c #870000",
"#x c #870202",
"#f c #890000",
"aL c #890101",
"#9 c #8b0000",
"bO c #8b0001",
"aA c #8b0101",
"br c #8c0000",
"#U c #8c0303",
"aP c #8d0000",
"al c #8d0101",
"as c #8f0404",
".z c #900000",
"aU c #900101",
"cm c #900404",
".Y c #910000",
"#H c #910101",
"ch c #950000",
"bP c #960000",
"#C c #970000",
"a1 c #980000",
"ac c #980101",
".E c #980202",
"b# c #990101",
"bK c #9a0000",
"#N c #9a0101",
"#m c #9d0000",
"bi c #9e0000",
"a6 c #9f0000",
"bD c #9f0101",
"#T c #a00000",
"#O c #a10000",
"bo c #a30000",
"an c #a40000",
".O c #a40001",
".R c #a60000",
".J c #a70000",
".F c #a80000",
"## c #a80101",
"aV c #a90000",
"aG c #a90101",
"#3 c #aa0000",
"bZ c #aa0101",
".P c #ab0000",
".s c #ac0000",
".W c #ac0101",
"#l c #ad0000",
".Q c #ae0000",
"#I c #af0000",
".7 c #af0101",
"aB c #b00000",
".I c #b10000",
".H c #b20000",
".G c #b30000",
"#a c #b40000",
"#e c #b50000",
".X c #b60000",
"#r c #b70000",
"#s c #b80000",
".3 c #b90000",
".r c #ba0000",
"b5 c #bb0000",
".8 c #bc0000",
".q c #bd0000",
".y c #be0000",
".x c #bf0000",
"bU c #c00000",
"#b c #c10000",
"QtQtQtQtQtQtQtQtQtQtQtQtQtQtQtQtQtQtQtQtQtQtQtQtQtQtQtQtQtQtQtQtQtQtQtQtQtQtQtQtQtQtQtQtQtQtQtQtQtQtQtQtQtQtQtQtQtQtQtQtQtQtQtQt",
"QtQtQtQtQtQtQtQtQtQtQtQtQtQtQtQtQtQtQtQtQtQtQtQtQtQtQtQtQtQtQtQtQtQtQtQtQtQtQtQtQtQtQtQtQtQtQtQtQtQtQtQtQtQtQtQtQtQtQtQtQtQtQtQt",
"QtQtQtQtQtQtQtQtQtQtQtQtQtQtQtQtQtQtQtQtQtQtQtQtQtQtQtQtQtQtQtQtQtQtQtQtQtQtQtQtQtQtQtQtQtQtQtQtQtQtQtQtQtQtQtQtQtQtQtQtQtQtQtQt",
"QtQtQtQtQtQtQtQtQtQtQtQtQtQtQtQtQtQtQtQtQtQtQtQtQtQtQtQtQtQtQtQtQtQtQtQtQtQtQtQtQtQtQtQtQtQtQtQtQtQtQtQtQtQtQtQtQtQtQtQtQtQtQtQt",
"QtQtQtQtQtQtQtQtQtQtQtQtQtQtQtQtQtQtQtQtQtQtQtQtQtQtQtQtQtQtQtQtQtQtQtQtQtQtQtQtQtQtQtQtQtQtQtQtQtQtQtQtQtQtQtQtQtQtQtQtQtQtQtQt",
"QtQtQtQtQtQtQtQtQtQtQtQtQtQtQtQtQtQtQtQtQtQtQtQtQtQtQtQtQtQtQtQtQtQtQtQtQtQtQtQtQtQtQtQtQtQtQtQtQtQtQtQtQtQtQtQtQtQtQtQtQtQtQtQt",
"QtQtQtQtQtQtQtQtQtQtQtQtQtQtQtQtQtQtQtQtQtQtQtQtQtQtQtQtQtQtQtQtQtQtQtQtQtQtQtQtQtQtQtQtQtQtQtQtQtQtQtQtQtQtQtQtQtQtQtQtQtQtQtQt",
"QtQtQtQtQtQtQtQtQtQtQtQtQtQtQtQtQtQtQtQtQtQtQtQtQtQtQtQtQtQtQtQtQtQtQtQtQtQtQtQtQtQtQtQtQtQtQtQtQtQtQtQtQtQtQtQtQtQtQtQtQtQtQtQt",
"QtQtQtQtQtQtQtQtQtQtQtQtQtQtQtQtQtQtQtQtQtQtQtQtQtQtQtQtQtQtQtQtQtQtQtQtQtQtQtQtQtQtQtQtQtQtQtQtQtQtQtQtQtQtQtQtQtQtQtQtQtQtQtQt",
"QtQtQtQtQtQtQtQtQtQtQtQtQtQtQtQtQtQtQtQtQtQtQtQtQtQtQtQtQtQtQtQtQtQtQtQtQtQtQtQtQtQtQtQtQtQtQtQtQtQtQtQtQtQtQtQtQtQtQtQtQtQtQtQt",
"QtQtQtQtQtQtQtQtQtQtQtQtQtQtQtQtQtQtQtQtQtQtQtQtQtQtQtQtQtQtQtQtQtQtQtQtQtQtQtQtQtQtQtQtQtQtQtQtQtQtQtQtQtQtQtQtQtQtQtQtQtQtQtQt",
"QtQtQtQtQtQtQtQtQtQtQtQtQtQtQtQtQtQtQtQtQtQtQtQtQtQtQtQtQtQtQtQtQtQtQtQtQtQtQtQtQtQtQtQtQtQtQtQtQtQtQtQtQtQtQtQtQtQtQtQtQtQtQtQt",
"QtQtQtQtQtQtQtQtQtQtQtQtQtQtQtQtQtQtQtQtQtQtQtQtQtQtQtQtQtQtQtQtQtQtQtQtQtQtQtQtQtQtQtQtQtQtQtQtQtQtQtQtQtQtQtQtQtQtQtQtQtQtQtQt",
"QtQtQtQtQtQtQtQtQtQtQtQtQtQtQtQtQtQtQtQtQtQtQtQtQtQtQtQtQtQtQtQtQtQtQtQtQtQtQtQtQtQtQtQtQtQtQtQtQtQtQtQtQtQtQtQtQtQtQtQtQtQtQtQt",
"QtQtQtQtQtQtQtQtQtQtQtQtQtQtQtQtQtQtQtQtQtQtQtQtQtQtQtQtQtQtQtQtQtQtQtQtQtQtQtQtQtQtQtQtQtQtQtQtQtQtQtQtQtQtQtQtQtQtQtQtQtQtQtQt",
"QtQtQtQtQtQtQtQtQtQtQtQtQtQtQtQtQtQt.#.#.aQtQtQtQtQtQtQtQtQtQtQtQtQtQtQtQtQtQtQtQtQtQt.b.#.#.cQtQtQtQtQtQtQtQtQtQtQtQtQtQtQtQtQt",
"QtQtQtQtQtQtQtQtQtQtQtQtQtQtQtQt.d.e.f.g.h.iQtQtQtQtQtQtQtQtQtQtQtQtQtQtQtQtQtQtQtQt.j.k.l.l.m.nQtQtQtQtQtQtQtQtQtQtQtQtQtQtQtQt",
"QtQtQtQtQtQtQtQtQtQtQtQtQtQtQtQt.o.p.q.r.s.t.uQtQtQtQtQtQtQtQtQtQtQtQtQtQtQtQtQtQtQt.v.w.x.y.z.A.BQtQtQtQtQtQtQtQtQtQtQtQtQtQtQt",
"QtQtQtQtQtQtQtQtQtQtQtQtQtQt.C.D.E.F.G.H.I.J.K.LQtQtQtQtQtQtQtQtQtQtQtQtQtQtQtQt.M.N.O.P.G.G.Q.R.S.TQtQtQtQtQtQtQtQtQtQtQtQtQtQt",
"QtQtQtQtQtQtQtQtQtQtQtQtQtQt.U.V.W.X.H.H.H.r.Y.Z.0QtQtQtQtQtQtQtQtQtQtQtQtQtQtQt.1.2.3.G.H.H.G.y.4.#QtQtQtQtQtQtQtQtQtQtQtQtQtQt",
"QtQtQtQtQtQtQtQtQtQtQtQtQtQt.5.6.7.3.H.H.H.H.G.8.9.#QtQtQtQtQtQtQtQtQtQtQtQt#..A##.X.H.H.H.H#a#b.2.#QtQtQtQtQtQtQtQtQtQtQtQtQtQt",
"QtQtQtQtQtQtQtQtQtQtQtQtQtQtQt#c#d.w#e.H.H.H.H#e#f#g#hQtQtQtQtQtQtQtQtQtQt#i#j#k#l.G.H.H.H.X#m#n#oQtQtQtQtQtQtQtQtQtQtQtQtQtQtQt",
"QtQtQtQtQtQtQtQtQtQtQtQtQtQtQtQt#p#q.G.I.H.H.H.H#r#s#t#uQtQtQtQtQtQtQtQt#v.##w.y.H.H.H.H.H#a#x#y#zQtQtQtQtQtQtQtQtQtQtQtQtQtQtQt",
"QtQtQtQtQtQtQtQtQtQtQtQtQtQtQtQtQt#A#t#B.8.G.H.H.H.H#C#D#EQtQtQtQtQtQt#F#G#H.F.G.H.H.H.X#I#J#KQtQtQtQtQtQtQtQtQtQtQtQtQtQtQtQtQt",
"QtQtQtQtQtQtQtQtQtQtQtQtQtQtQtQtQtQt#L#M#N.Q.G.H.H.H.3#O#P#QQtQtQtQtQt#R#S.q.G.H.H.H.G#T#U#V#WQtQtQtQtQtQtQtQtQtQtQtQtQtQtQtQtQt",
"QtQtQtQtQtQtQtQtQtQtQtQtQtQtQtQtQtQtQt#X#Y#T.r.H.H.H.H.I.H#Z#0QtQt#1#2#3#I.H.H.H.H#e.y#4#5QtQtQtQtQtQtQtQtQtQtQtQtQtQtQtQtQtQtQt",
"QtQtQtQtQtQtQtQtQtQtQtQtQtQtQtQtQtQtQtQt#6#7#8.H.H.H.H.H#s#9a.a#Qtaaab.G.G.H.H.H#eac#kadaeQtQtQtQtQtQtQtQtQtQtQtQtQtQtQtQtQtQtQt",
"QtQtQtQtQtQtQtQtQtQtQtQtQtQtQtQtQtQtQtQtQtafag.X#a.H.H.H.H#e.yah.##m.8.H.H.H.H.G.qai.#QtQtQtQtQtQtQtQtQtQtQtQtQtQtQtQtQtQtQtQtQt",
"QtQtQtQtQtQtQtQtQtQtQtQtQtQtQtQtQtQtQtQtQtQtQtajak.r.G.H.H.H#aalam#3.G.H.H.H#ranaoapQtQtQtQtQtQtQtQtQtQtQtQtQtQtQtQtQtQtQtQtQtQt",
"QtQtQtQtQtQtQtQtQtQtQtQtQtQtQtQtQtQtQtQtQtQtQtaqar.P#I.H.H.H.H#r.3.G.H.H.H.H.PasatauQtQtQtQtQtQtQtQtQtQtQtQtQtQtQtQtQtQtQtQtQtQt",
"QtQtQtQtQtQtQtQtQtQtQtQtQtQtQtQtQtQtQtQtQtQtQtQtavaw.Y.q.H.H.H.H.H.H.H.H#e#sajaxQtQtQtQtQtQtQtQtQtQtQtQtQtQtQtQtQtQtQtQtQtQtQtQt",
"QtQtQtQtQtQtQtQtQtQtQtQtQtQtQtQtQtQtQtQtQtQtQtQtQtayazaAaB.G.H.H.H.H.H#a#NaCaDQtQtQtQtQtQtQtQtQtQtQtQtQtQtQtQtQtQtQtQtQtQtQtQtQt",
"QtQtQtQtQtQtQtQtQtQtQtQtQtQtQtQtQtQtQtQtQtQtQtQtQtQtaEaFaG#a.H.H.H.H.H.3aH.#QtQtQtQtQtQtQtQtQtQtQtQtQtQtQtQtQtQtQtQtQtQtQtQtQtQt",
"QtQtQtQtQtQtQtQtQtQtQtQtQtQtQtQtQtQtQtQtQtQtQtQtQtaIaJaK.Q.G.H.H.H.H.H#eaLaMaNQtQtQtQtQtQtQtQtQtQtQtQtQtQtQtQtQtQtQtQtQtQtQtQtQt",
"QtQtQtQtQtQtQtQtQtQtQtQtQtQtQtQtQtQtQtQtQtQtQtQtaO.#aP.y.H.H.H.H.H.H.H.H#e.3aQaRQtQtQtQtQtQtQtQtQtQtQtQtQtQtQtQtQtQtQtQtQtQtQtQt",
"QtQtQtQtQtQtQtQtQtQtQtQtQtQtQtQtQtQtQtQtQtQtQtaSaTaUaV.G.H.H.H#e.X.G.H.H.H.H#CaWaXaYQtQtQtQtQtQtQtQtQtQtQtQtQtQtQtQtQtQtQtQtQtQt",
"QtQtQtQtQtQtQtQtQtQtQtQtQtQtQtQtQtQtQtQtQtQtQtaZa0.q.G.H.H.H.G#Oa1.Q.G.H.H.H.3#Oa2a3QtQtQtQtQtQtQtQtQtQtQtQtQtQtQtQtQtQtQtQtQtQt",
"QtQtQtQtQtQtQtQtQtQtQtQtQtQtQtQtQtQtQtQtQta4a5#3.Q.H.H.H.H#e.x#4.#a6.8.H.H.H.H.I.Ia7a8QtQtQtQtQtQtQtQtQtQtQtQtQtQtQtQtQtQtQtQtQt",
"QtQtQtQtQtQtQtQtQtQtQtQtQtQtQtQtQtQtQtQtQta9b..G.G.H.H.H#eb#babbbcbdbe.H.H.H.H.H#s#9bfbgQtQtQtQtQtQtQtQtQtQtQtQtQtQtQtQtQtQtQtQt",
"QtQtQtQtQtQtQtQtQtQtQtQtQtQtQtQtQtQtQtbh.#bi.r.H.H.H.H.G.ybj.#QtQtbk#P.X.X.H.H.H.H#a.qahblQtQtQtQtQtQtQtQtQtQtQtQtQtQtQtQtQtQtQt",
"QtQtQtQtQtQtQtQtQtQtQtQtQtQtQtQtQtQtbmbn.g#3.G.H.H.H.XbobpbqQtQtQtQtQtah.w.3.G.H.H.H#abrbsbtbuQtQtQtQtQtQtQtQtQtQtQtQtQtQtQtQtQt",
"QtQtQtQtQtQtQtQtQtQtQtQtQtQtQtQtQtQtbvbw.x.G.H.H.H.H.sasbxbyQtQtQtQtQtbzbA.s#I.H.H.H.H#saB#RbBQtQtQtQtQtQtQtQtQtQtQtQtQtQtQtQtQt",
"QtQtQtQtQtQtQtQtQtQtQtQtQtQtQtQta4bCbD#3.G.H.H.H.X#r#JbEQtQtQtQtQtQtQtQtbFbG#9.8.H.H.H.H.IbobHbIQtQtQtQtQtQtQtQtQtQtQtQtQtQtQtQt",
"QtQtQtQtQtQtQtQtQtQtQtQtQtQtQtQtbJ.4.3.G.H.H.H#abKaCbLbMQtQtQtQtQtQtQtQtQtbN.mbO#I.G.H.H.H.rbPbQbRQtQtQtQtQtQtQtQtQtQtQtQtQtQtQt",
"QtQtQtQtQtQtQtQtQtQtQtQtQtQtbSbTaG#a.H.H.H.H#abUbV.#QtQtQtQtQtQtQtQtQtQtQtQtbWbX.s.3.H.H.H.H.H.rbY.#QtQtQtQtQtQtQtQtQtQtQtQtQtQt",
"QtQtQtQtQtQtQtQtQtQtQtQtQtQtbSbTbZ#e.H.H.H.XbKb0b1QtQtQtQtQtQtQtQtQtQtQtQtQtQtb2b3b4#e.H.H.H.Hb5.4.#QtQtQtQtQtQtQtQtQtQtQtQtQtQt",
"QtQtQtQtQtQtQtQtQtQtQtQtQtQtb6b7##.G.H.H.H#raCb8QtQtQtQtQtQtQtQtQtQtQtQtQtQtQtQtb9c..X.H.H.H.H.3c#caQtQtQtQtQtQtQtQtQtQtQtQtQtQt",
"QtQtQtQtQtQtQtQtQtQtQtQtQtQtQtQtcbcc.r#s.s#JcdQtQtQtQtQtQtQtQtQtQtQtQtQtQtQtQtQtQtcecfcg.8b5chcicjQtQtQtQtQtQtQtQtQtQtQtQtQtQtQt",
"QtQtQtQtQtQtQtQtQtQtQtQtQtQtQtQtckcl#mbKcmcnbMQtQtQtQtQtQtQtQtQtQtQtQtQtQtQtQtQtQtQtcocpbibicqcrQtQtQtQtQtQtQtQtQtQtQtQtQtQtQtQt",
"QtQtQtQtQtQtQtQtQtQtQtQtQtQtQtQtQtQt.#.#csQtQtQtQtQtQtQtQtQtQtQtQtQtQtQtQtQtQtQtQtQtQtct.#.#cuQtQtQtQtQtQtQtQtQtQtQtQtQtQtQtQtQt",
"QtQtQtQtQtQtQtQtQtQtQtQtQtQtQtQtQtQtcvcvcwQtQtQtQtQtQtQtQtQtQtQtQtQtQtQtQtQtQtQtQtQtQtQtcvcvQtQtQtQtQtQtQtQtQtQtQtQtQtQtQtQtQtQt",
"QtQtQtQtQtQtQtQtQtQtQtQtQtQtQtQtQtQtQtQtQtQtQtQtQtQtQtQtQtQtQtQtQtQtQtQtQtQtQtQtQtQtQtQtQtQtQtQtQtQtQtQtQtQtQtQtQtQtQtQtQtQtQtQt",
"QtQtQtQtQtQtQtQtQtQtQtQtQtQtQtQtQtQtQtQtQtQtQtQtQtQtQtQtQtQtQtQtQtQtQtQtQtQtQtQtQtQtQtQtQtQtQtQtQtQtQtQtQtQtQtQtQtQtQtQtQtQtQtQt",
"QtQtQtQtQtQtQtQtQtQtQtQtQtQtQtQtQtQtQtQtQtQtQtQtQtQtQtQtQtQtQtQtQtQtQtQtQtQtQtQtQtQtQtQtQtQtQtQtQtQtQtQtQtQtQtQtQtQtQtQtQtQtQtQt",
"QtQtQtQtQtQtQtQtQtQtQtQtQtQtQtQtQtQtQtQtQtQtQtQtQtQtQtQtQtQtQtQtQtQtQtQtQtQtQtQtQtQtQtQtQtQtQtQtQtQtQtQtQtQtQtQtQtQtQtQtQtQtQtQt",
"QtQtQtQtQtQtQtQtQtQtQtQtQtQtQtQtQtQtQtQtQtQtQtQtQtQtQtQtQtQtQtQtQtQtQtQtQtQtQtQtQtQtQtQtQtQtQtQtQtQtQtQtQtQtQtQtQtQtQtQtQtQtQtQt",
"QtQtQtQtQtQtQtQtQtQtQtQtQtQtQtQtQtQtQtQtQtQtQtQtQtQtQtQtQtQtQtQtQtQtQtQtQtQtQtQtQtQtQtQtQtQtQtQtQtQtQtQtQtQtQtQtQtQtQtQtQtQtQtQt",
"QtQtQtQtQtQtQtQtQtQtQtQtQtQtQtQtQtQtQtQtQtQtQtQtQtQtQtQtQtQtQtQtQtQtQtQtQtQtQtQtQtQtQtQtQtQtQtQtQtQtQtQtQtQtQtQtQtQtQtQtQtQtQtQt",
"QtQtQtQtQtQtQtQtQtQtQtQtQtQtQtQtQtQtQtQtQtQtQtQtQtQtQtQtQtQtQtQtQtQtQtQtQtQtQtQtQtQtQtQtQtQtQtQtQtQtQtQtQtQtQtQtQtQtQtQtQtQtQtQt",
"QtQtQtQtQtQtQtQtQtQtQtQtQtQtQtQtQtQtQtQtQtQtQtQtQtQtQtQtQtQtQtQtQtQtQtQtQtQtQtQtQtQtQtQtQtQtQtQtQtQtQtQtQtQtQtQtQtQtQtQtQtQtQtQt",
"QtQtQtQtQtQtQtQtQtQtQtQtQtQtQtQtQtQtQtQtQtQtQtQtQtQtQtQtQtQtQtQtQtQtQtQtQtQtQtQtQtQtQtQtQtQtQtQtQtQtQtQtQtQtQtQtQtQtQtQtQtQtQtQt",
"QtQtQtQtQtQtQtQtQtQtQtQtQtQtQtQtQtQtQtQtQtQtQtQtQtQtQtQtQtQtQtQtQtQtQtQtQtQtQtQtQtQtQtQtQtQtQtQtQtQtQtQtQtQtQtQtQtQtQtQtQtQtQtQt",
"QtQtQtQtQtQtQtQtQtQtQtQtQtQtQtQtQtQtQtQtQtQtQtQtQtQtQtQtQtQtQtQtQtQtQtQtQtQtQtQtQtQtQtQtQtQtQtQtQtQtQtQtQtQtQtQtQtQtQtQtQtQtQtQt",
"QtQtQtQtQtQtQtQtQtQtQtQtQtQtQtQtQtQtQtQtQtQtQtQtQtQtQtQtQtQtQtQtQtQtQtQtQtQtQtQtQtQtQtQtQtQtQtQtQtQtQtQtQtQtQtQtQtQtQtQtQtQtQtQt"};
